Coordinates
version=1
nRows=10
nColumns=34
inDegrees=yes

Units are S.I. units (second, meters, Newtons, ...)
If the header above contains a line with 'inDegrees', this indicates whether rotational values are in degrees (yes) or radians (no).

endheader
time	pelvis_tilt	pelvis_list	pelvis_rotation	pelvis_tx	pelvis_ty	pelvis_tz	hip_flexion_r	hip_adduction_r	hip_rotation_r	knee_angle_r	ankle_angle_r	subtalar_angle_r	mtp_angle_r	hip_flexion_l	hip_adduction_l	hip_rotation_l	knee_angle_l	ankle_angle_l	subtalar_angle_l	mtp_angle_l	lumbar_extension	lumbar_bending	lumbar_rotation	arm_flex_r	arm_add_r	arm_rot_r	elbow_flex_r	pro_sup_r	arm_flex_l	arm_add_l	arm_rot_l	elbow_flex_l	pro_sup_l
      2.93333330	     -0.99630027	      5.27923849	     -2.51073788	     -0.54882677	      0.46049966	      0.05631703	     95.58465250	      6.93593766	    -13.73337413	     49.81074458	     -6.34071278	     -5.12705923	      0.00000000	    100.99405481	    -10.82126629	     -0.43497908	     71.93124601	     50.00000000	    -35.00000000	      0.00000000	    -54.79587794	      0.89283338	     -4.74615246	     40.17143842	     -3.10359491	      7.05903199	     62.61246197	    101.80575791	    120.51225851	     -1.06166208	     42.69372568	     38.78762635	     53.45332307
      2.95000000	     -0.15089760	      5.00977030	     -3.26244565	     -0.55493450	      0.45911082	      0.05841278	     94.63648494	      8.03812535	    -13.80418837	     48.54759971	     -7.85564340	     -6.41151646	      0.00000000	    100.36491209	    -10.99692419	      0.52323991	     71.23583592	     50.00000000	    -35.00000000	      0.00000000	    -55.74554675	      0.43063588	     -5.90009924	     36.57437456	     -2.74591428	      6.13080536	     65.41258023	    102.29978265	    118.80550976	     -1.73121032	     41.95283561	     40.54396962	     52.10346218
      2.96666670	      0.43049439	      4.49131652	     -3.87249185	     -0.53855504	      0.44550893	      0.05729033	     95.09746160	      8.82603971	    -14.54524006	     49.24785099	     -7.81234332	     -7.40056506	      0.00000000	    101.14933125	    -11.06314078	      2.13589258	     71.96077340	     50.00000000	    -35.00000000	      0.00000000	    -54.88719329	      0.35751638	     -6.58031708	     30.80072451	     -3.14071565	      5.17106113	     67.52055732	    103.18272776	    114.04327480	     -1.95131500	     39.54273441	     44.19325174	     50.04766498
      2.98333330	      0.36979764	      3.66116624	     -4.26790995	     -0.52569497	      0.46274497	      0.05706864	     94.70005892	      9.52670297	    -14.71337191	     49.33786503	     -8.16403114	     -8.75797375	      0.00000000	    101.44275031	    -11.37689074	      3.12186386	     72.33310223	     50.00000000	    -35.00000000	      0.00000000	    -53.92922228	      0.92099948	     -6.45235235	     24.58584909	     -3.75752279	      2.82135528	     68.80849943	    103.29301292	    108.45812208	     -1.97454729	     37.94927782	     47.60163551	     49.56987813
      3.00000000	      0.39240366	      2.90418069	     -4.52121293	     -0.52489777	      0.45988993	      0.05607885	     94.76682200	      9.86825869	    -15.63596351	     49.77251800	     -7.48267545	     -9.13498939	      0.00000000	    101.53017523	    -11.15058093	      4.50189168	     72.77750599	     50.00000000	    -35.00000000	      0.00000000	    -52.21047035	      1.86038730	     -7.01948508	     19.64409462	     -4.41189417	      1.78317323	     67.54928200	    103.48978533	    102.37868737	     -2.48258138	     36.32945056	     50.47132659	     49.56342714
      3.01666670	      1.06738657	      2.44973880	     -4.67269705	     -0.54072533	      0.47140715	      0.06154956	     92.96226833	     10.41361607	    -15.42978289	     48.05521231	     -8.69240239	    -10.26870176	      0.00000000	    100.13610849	    -11.01238570	      4.97873028	     71.77117416	     50.00000000	    -35.00000000	      0.00000000	    -52.27087476	      2.16882776	     -7.95465194	     16.96622179	     -4.79826480	      1.38375088	     65.48733189	    103.48429878	     97.91970400	     -2.40616194	     35.62202544	     51.18230854	     49.74997096
      3.03333330	      2.60590392	      2.29840492	     -4.87363460	     -0.54781288	      0.48057861	      0.05933458	     89.88821009	     10.99859097	    -14.97076606	     45.46295521	     -8.96576831	     -9.71330692	      0.00000000	     97.30906916	    -10.50382980	      5.35932878	     69.85954380	     50.00000000	    -35.00000000	      0.00000000	    -53.15266796	      2.58877169	     -9.62928924	     15.70571539	     -5.06474386	      1.66657793	     62.78571133	    103.42117062	     93.84339575	     -2.68637106	     34.06349035	     51.36831126	     49.87804713
      3.05000000	      3.60576283	      2.02286988	     -5.43327498	     -0.54970959	      0.47004581	      0.05967959	     88.64008231	     11.97490481	    -14.66007566	     44.11511451	     -8.95043616	    -10.82103865	      0.00000000	     95.86136638	    -10.21675208	      6.50002872	     68.36298512	     50.00000000	    -35.00000000	      0.00000000	    -52.30138564	      2.81447963	    -11.11933101	     14.41999289	     -5.78537044	      2.60021560	     59.11501272	    103.33918654	     89.45371539	     -3.59748833	     33.40967812	     50.80848872	     50.03665867
      3.06666670	      4.72423430	      2.13327924	     -6.15369288	     -0.55219807	      0.47279146	      0.05591892	     87.16322720	     12.85382270	    -13.57069292	     42.89301650	     -9.28600935	    -11.28614751	      0.00000000	     94.86122480	     -9.83350568	      7.21485520	     67.97587275	     50.00000000	    -35.00000000	      0.00000000	    -51.53960940	      2.69353091	    -13.06138378	     13.44327916	     -7.10712946	      4.99234993	     55.63525219	    103.09146594	     85.60931812	     -5.18069100	     32.45131412	     50.60022186	     50.42260095
      3.08333330	      6.35697252	      2.62878387	     -6.18685914	     -0.58312933	      0.46656361	      0.05996257	     85.27149777	     13.36274389	    -11.98173536	     41.01386992	    -10.06846565	    -11.63970919	      0.00000000	     93.31320802	     -9.22700025	      6.83684594	     67.21979573	     50.00000000	    -17.67428877	      0.00000000	    -51.97202759	      1.91558972	    -14.86514511	     11.77870641	     -8.05671195	      6.04406319	     54.88339804	    102.82131960	     83.37511520	     -5.85544501	     33.32286257	     50.18648605	     50.82491514
